<?xml version="1.0" encoding="UTF-8" ?>
<!DOCTYPE svg PUBLIC "-//W3C//DTD SVG 1.1//EN" "http://www.w3.org/Graphics/SVG/1.1/DTD/svg11.dtd">
<svg width="134pt" height="134pt" viewBox="0 0 134 134" version="1.1" xmlns="http://www.w3.org/2000/svg">
<g id="#ffffffff">
<path fill="#ffffff" opacity="1.00" d=" M 57.96 0.00 L 75.99 0.00 C 78.08 0.63 80.22 1.07 82.38 1.44 C 83.72 1.80 85.08 2.11 86.44 2.40 C 107.83 8.62 125.36 26.15 131.59 47.53 C 131.89 48.90 132.19 50.27 132.56 51.62 C 132.93 53.75 133.36 55.88 134.00 57.96 L 134.00 76.19 C 133.29 78.19 132.92 80.28 132.56 82.37 C 132.19 83.71 131.89 85.07 131.59 86.42 C 130.87 88.45 130.20 90.49 129.59 92.56 C 125.95 100.17 121.82 107.77 115.69 113.68 C 107.82 122.15 97.49 128.20 86.48 131.58 C 85.10 131.89 83.73 132.19 82.37 132.56 C 80.24 132.93 78.11 133.36 76.05 134.00 L 58.02 134.00 C 55.91 133.37 53.76 132.93 51.60 132.55 C 50.25 132.19 48.90 131.89 47.54 131.59 C 36.51 128.20 26.16 122.14 18.28 113.65 C 12.16 107.74 8.04 100.15 4.41 92.55 C 3.80 90.49 3.12 88.45 2.41 86.42 C 2.11 85.07 1.81 83.73 1.44 82.40 C 1.07 80.25 0.64 78.12 0.00 76.04 L 0.00 57.82 C 0.71 55.79 1.09 53.68 1.45 51.57 C 1.82 50.24 2.12 48.90 2.41 47.57 C 3.13 45.54 3.80 43.51 4.41 41.46 C 8.21 33.41 12.68 25.45 19.28 19.35 C 25.39 12.72 33.37 8.23 41.44 4.41 C 43.51 3.80 45.56 3.12 47.59 2.41 C 48.94 2.11 50.28 1.81 51.61 1.44 C 53.75 1.07 55.88 0.64 57.96 0.00 M 56.30 6.57 C 54.65 6.82 52.99 7.04 51.39 7.55 C 50.14 7.83 48.89 8.10 47.66 8.46 C 47.15 8.73 46.12 9.28 45.61 9.55 C 43.82 9.98 42.16 10.77 40.53 11.60 C 39.48 12.11 38.43 12.63 37.37 13.13 C 34.07 14.80 31.33 17.33 28.21 19.27 C 25.10 22.10 22.12 25.08 19.29 28.19 C 18.51 29.75 17.33 31.02 16.22 32.34 C 15.23 34.04 14.09 35.65 13.13 37.37 C 12.64 38.43 12.11 39.48 11.60 40.53 C 10.77 42.16 9.98 43.83 9.55 45.61 C 9.27 46.12 8.73 47.15 8.46 47.66 C 8.10 48.89 7.84 50.14 7.55 51.39 C 7.04 52.98 6.82 54.65 6.57 56.30 C 5.39 59.75 5.91 63.47 5.76 67.05 C 5.91 70.59 5.39 74.28 6.57 77.70 C 6.82 79.35 7.04 81.02 7.55 82.61 C 7.84 83.86 8.10 85.11 8.46 86.34 C 8.73 86.85 9.28 87.88 9.55 88.39 C 10.26 91.33 11.92 93.89 13.12 96.63 C 14.81 99.93 17.32 102.68 19.28 105.79 C 22.11 108.91 25.09 111.89 28.21 114.72 C 31.32 116.67 34.07 119.19 37.37 120.87 C 40.11 122.08 42.68 123.73 45.61 124.46 C 46.12 124.72 47.14 125.26 47.65 125.53 C 48.88 125.89 50.14 126.16 51.39 126.45 C 52.99 126.96 54.65 127.17 56.30 127.43 C 59.73 128.61 63.43 128.09 66.99 128.24 C 70.56 128.09 74.26 128.61 77.70 127.44 C 79.35 127.17 81.01 126.96 82.61 126.45 C 83.86 126.16 85.11 125.89 86.34 125.54 C 86.85 125.27 87.86 124.73 88.37 124.46 C 91.31 123.74 93.88 122.08 96.63 120.87 C 98.35 119.92 99.96 118.77 101.66 117.78 C 102.98 116.67 104.25 115.48 105.81 114.71 C 108.92 111.88 111.90 108.91 114.72 105.79 C 116.67 102.67 119.19 99.93 120.87 96.63 C 122.08 93.89 123.74 91.32 124.45 88.39 C 124.73 87.87 125.27 86.85 125.54 86.34 C 125.90 85.11 126.16 83.86 126.45 82.61 C 126.96 81.02 127.17 79.35 127.43 77.70 C 128.60 74.27 128.09 70.57 128.24 67.01 C 128.09 63.44 128.61 59.74 127.43 56.30 C 127.18 54.65 126.96 52.98 126.45 51.39 C 126.16 50.14 125.89 48.88 125.53 47.65 C 125.26 47.14 124.73 46.13 124.46 45.62 C 123.93 43.41 122.83 41.42 121.83 39.40 C 121.60 38.90 121.12 37.89 120.89 37.38 C 119.92 35.66 118.78 34.04 117.78 32.34 C 116.67 31.02 115.49 29.74 114.71 28.19 C 111.88 25.08 108.90 22.10 105.79 19.27 C 102.67 17.32 99.93 14.80 96.63 13.13 C 95.56 12.63 94.51 12.11 93.46 11.60 C 91.83 10.76 90.16 9.98 88.38 9.54 C 87.87 9.27 86.86 8.74 86.35 8.47 C 85.12 8.11 83.87 7.84 82.62 7.55 C 81.02 7.04 79.35 6.82 77.70 6.57 C 74.26 5.39 70.55 5.91 66.98 5.76 C 63.43 5.91 59.73 5.39 56.30 6.57 Z" />
<path fill="#ffffff" opacity="1.00" d=" M 41.59 24.22 C 50.47 23.87 59.36 24.15 68.25 23.96 C 69.15 25.57 70.31 27.01 71.53 28.39 C 72.36 29.82 73.34 31.16 74.20 32.57 C 78.43 38.42 81.93 44.80 86.52 50.38 C 89.86 55.65 93.44 60.77 96.89 65.97 C 97.46 68.21 95.81 70.02 94.71 71.77 C 92.18 75.67 89.37 79.39 87.14 83.46 C 84.28 88.23 80.81 92.60 78.14 97.47 C 77.55 98.50 76.88 99.48 76.21 100.45 C 74.34 103.24 72.58 106.11 70.64 108.85 C 60.97 109.13 51.27 108.96 41.59 108.81 C 45.20 102.09 50.12 96.18 53.86 89.54 C 58.52 82.26 63.42 75.12 68.20 67.93 C 68.56 64.56 65.07 62.39 63.86 59.46 C 62.43 56.65 60.44 54.17 58.85 51.45 C 56.81 47.61 54.07 44.21 51.86 40.46 C 49.83 36.62 47.07 33.21 44.87 29.46 C 43.95 27.61 42.71 25.95 41.59 24.22 Z" />
</g>
</svg>
